<svg xmlns="http://www.w3.org/2000/svg" xmlns:xlink="http://www.w3.org/1999/xlink" width="24" height="24" viewBox="0 0 24 24"><defs><style>.a{fill:#000;}.b{clip-path:url(#a);}</style><clipPath id="a"><rect class="a" width="24" height="24" transform="translate(32 1068)"/></clipPath></defs><g class="b" transform="translate(-32 -1068)"><g transform="translate(32 1068)"><path class="a" d="M13.547,15.188a.938.938,0,0,0,0,1.875h1.313a.938.938,0,0,0,0-1.875Z"/><path class="a" d="M23.063,13.318A.938.938,0,0,0,24,12.381V6.938a3.754,3.754,0,0,0-3.75-3.75H3.75A3.754,3.754,0,0,0,0,6.938V17.063a3.754,3.754,0,0,0,3.75,3.75h16.5A3.754,3.754,0,0,0,24,17.063a.938.938,0,0,0-1.875,0,1.877,1.877,0,0,1-1.875,1.875H3.75a1.877,1.877,0,0,1-1.875-1.875V6.938A1.877,1.877,0,0,1,3.75,5.063h16.5a1.877,1.877,0,0,1,1.875,1.875v5.443A.938.938,0,0,0,23.063,13.318Z"/><path class="a" d="M19.359,15.188H18.047a.938.938,0,0,0,0,1.875h1.313a.938.938,0,0,0,0-1.875Z"/><path class="a" d="M9.047,17.063h1.313a.938.938,0,0,0,0-1.875H9.047a.938.938,0,0,0,0,1.875Z"/><path class="a" d="M9.281,12.1V8.349a.937.937,0,0,0-.937-.937H4.594a.937.937,0,0,0-.937.938V12.1a.937.937,0,0,0,.938.938h3.75A.938.938,0,0,0,9.281,12.1Zm-1.875-.938H5.531V9.287H7.406Z"/><path class="a" d="M4.547,15.188a.938.938,0,0,0,0,1.875H5.859a.938.938,0,0,0,0-1.875Z"/></g></g></svg>