<svg xmlns="http://www.w3.org/2000/svg" xmlns:xlink="http://www.w3.org/1999/xlink" width="24" height="24" viewBox="0 0 24 24"><defs><style>.a{fill:#282830;}.b{clip-path:url(#a);}</style><clipPath id="a"><rect class="a" width="24" height="24" transform="translate(32 1068)"/></clipPath></defs><g class="b" transform="translate(-32 -1068)"><path class="a" d="M16.313,24H7.688a5.631,5.631,0,0,1-5.625-5.625V5.625A5.631,5.631,0,0,1,7.688,0h8.625a5.631,5.631,0,0,1,5.625,5.625v12.75A5.631,5.631,0,0,1,16.313,24ZM7.688,1.875a3.754,3.754,0,0,0-3.75,3.75v12.75a3.754,3.754,0,0,0,3.75,3.75h8.625a3.754,3.754,0,0,0,3.75-3.75V5.625a3.754,3.754,0,0,0-3.75-3.75Zm9,15.885a4.367,4.367,0,0,0-4.37-4.354h-.636a4.367,4.367,0,0,0-4.37,4.354.938.938,0,0,0,1.875,0,2.49,2.49,0,0,1,2.495-2.479h.636a2.49,2.49,0,0,1,2.495,2.479.937.937,0,0,0,1.875,0Zm-4.594-5.9a3.375,3.375,0,1,1,3.375-3.375A3.379,3.379,0,0,1,12.094,11.859Zm0-4.875a1.5,1.5,0,1,0,1.5,1.5A1.5,1.5,0,0,0,12.094,6.984Z" transform="translate(32 1068)"/></g></svg>