<svg xmlns="http://www.w3.org/2000/svg" xmlns:xlink="http://www.w3.org/1999/xlink" width="19" height="19" viewBox="0 0 19 19"><defs><style>.a,.c{fill:#f01c41;}.a{opacity:0.27;}.b{clip-path:url(#a);}</style><clipPath id="a"><rect class="a" width="19" height="19" transform="translate(34 177.5)"/></clipPath></defs><g class="b" transform="translate(-34 -177.5)"><path class="c" d="M5.492,14.184a.625.625,0,0,1,0-1.251c2.307.008,8.392,0,10.772,0a1.384,1.384,0,0,0,1.355-1.077l1.352-5.853a1.125,1.125,0,0,0-1.091-1.378c-.958,0-9.086-.037-13.249-.053L3.97,2.127a1.348,1.348,0,0,0-1.3-.994H.557a.557.557,0,1,0,0,1.114H2.671a.232.232,0,0,1,.223.17l2.535,9.4a1.738,1.738,0,0,0-1.676,1.768A1.747,1.747,0,0,0,5.492,15.3H6.3a1.949,1.949,0,1,0,3.522,0h3.517a1.949,1.949,0,1,0,3.508-.029.557.557,0,0,0-.178-1.084ZM8.9,16.133a.835.835,0,1,1-.836-.835h0A.836.836,0,0,1,8.9,16.133Zm6.2.835A.835.835,0,0,1,15.09,15.3h.027a.835.835,0,0,1-.014,1.671ZM17.883,5.747a.009.009,0,0,1,0,.009l-.57,2.466H15.387l.328-2.489,2.159.009a.009.009,0,0,1,.009,0Zm-5.742,6.077V9.336h3.1l-.328,2.487Zm-3.885,0L7.925,9.336h3.1v2.487Zm-1.44,0h0a.3.3,0,0,1-.291-.222l-.61-2.265H7.925l.331,2.487ZM8.9,8.223,8.566,5.705l6.1.037-.347,2.493ZM7.441,5.7l.336,2.522H5.613L4.93,5.691Zm8.823,6.123H14.912l.328-2.487h1.818l-.525,2.273A.275.275,0,0,1,16.265,11.824Z" transform="translate(34 177.392)"/></g></svg>