<svg xmlns="http://www.w3.org/2000/svg" xmlns:xlink="http://www.w3.org/1999/xlink" width="24" height="24" viewBox="0 0 24 24"><defs><style>.a{fill:#282830;}.b{clip-path:url(#a);}</style><clipPath id="a"><rect class="a" width="24" height="24" transform="translate(32 1068)"/></clipPath></defs><g class="b" transform="translate(-32 -1068)"><path class="a" d="M0,6.281V4.031a.937.937,0,0,1,1.875,0V5.556A12,12,0,0,1,24,12a.937.937,0,1,1-1.875,0A10.126,10.126,0,0,0,3.341,6.75H4.594a.937.937,0,0,1,0,1.875H2.344A2.346,2.346,0,0,1,0,6.281ZM24,17.719v2.2a.937.937,0,0,1-1.875,0V18.37A12,12,0,0,1,11.953,24,11.96,11.96,0,0,1,0,12a.937.937,0,1,1,1.875,0,10.1,10.1,0,0,0,18.737,5.25H19.359a.937.937,0,0,1,0-1.875h2.3A2.346,2.346,0,0,1,24,17.719Zm0,0" transform="translate(32 1068)"/><path class="a" d="M7.634,15.029,10.6,12.067a1.406,1.406,0,0,1,.467-1.127c0-.01,0-.02,0-.03V5.426a.938.938,0,0,1,1.875,0V10.91c0,.01,0,.02,0,.03a1.409,1.409,0,0,1-1.015,2.453L8.96,16.354a.938.938,0,0,1-1.326-1.326Z" transform="translate(32 1068.012)"/></g></svg>