<svg xmlns="http://www.w3.org/2000/svg" xmlns:xlink="http://www.w3.org/1999/xlink" width="24" height="24" viewBox="0 0 24 24"><defs><style>.a{fill:#282830;}.b{clip-path:url(#a);}</style><clipPath id="a"><rect class="a" width="24" height="24" transform="translate(32 1068)"/></clipPath></defs><g class="b" transform="translate(-32 -1068)"><path class="a" d="M21.5,2.354,14.12.293A7.967,7.967,0,0,0,9.828.3L2.487,2.353a3.413,3.413,0,0,0,.92,6.694H20.588A3.412,3.412,0,0,0,21.5,2.354Zm-.916,4.818H3.407a1.537,1.537,0,0,1-.414-3.013L10.334,2.1a6.093,6.093,0,0,1,3.282,0L21,4.16A1.535,1.535,0,0,1,20.588,7.172ZM10.076,20.25a.937.937,0,0,1-.937-.937V11.766a.938.938,0,0,1,1.875,0v7.547A.937.937,0,0,1,10.076,20.25Zm-7.5.047a.937.937,0,0,1-.937-.937V11.766a.938.938,0,0,1,1.875,0v7.594A.937.937,0,0,1,2.576,20.3Zm3.8-.047a.937.937,0,0,1-.937-.937V11.766a.938.938,0,0,1,1.875,0v7.547A.937.937,0,0,1,6.373,20.25Zm13.656,2.812a.937.937,0,0,1-.937.937H.935a.938.938,0,0,1,0-1.875H19.091A.937.937,0,0,1,20.029,23.063ZM12,3.469a1.172,1.172,0,1,0,1.172,1.172A1.172,1.172,0,0,0,12,3.469Z" transform="translate(32 1068)"/><path class="a" d="M21.371,16.988a4.381,4.381,0,1,0-4.381,4.381A4.386,4.386,0,0,0,21.371,16.988Zm-1.845,0a2.536,2.536,0,1,1-2.536-2.536A2.539,2.539,0,0,1,19.526,16.988Zm4.019,6.555a.922.922,0,0,0,0-1.3L22.253,20.95a.922.922,0,0,0-1.3,1.306l1.291,1.289a.922.922,0,0,0,1.3,0Z" transform="translate(32.185 1066.186)"/></g></svg>