<svg xmlns="http://www.w3.org/2000/svg" xmlns:xlink="http://www.w3.org/1999/xlink" width="24" height="24" viewBox="0 0 24 24"><defs><style>.a{fill:#282830;}.b{clip-path:url(#a);}</style><clipPath id="a"><rect class="a" width="24" height="24" transform="translate(44 299)"/></clipPath></defs><g class="b" transform="translate(-44 -299)"><g transform="translate(44 299)"><path class="a" d="M23.985,10.923a1.68,1.68,0,0,0-1.417-1.649l-1.491-.242A9.375,9.375,0,0,0,20.5,7.649L21.4,6.37a1.679,1.679,0,0,0-.2-2.158L19.733,2.765A1.678,1.678,0,0,0,17.57,2.6s-.01,0-.015.01l-5.62,4.2h-.054A5.2,5.2,0,0,0,12,17.2h.119a5.2,5.2,0,0,0,4.76-6.983.889.889,0,1,0-1.669.612,3.418,3.418,0,0,1-3.131,4.593H12a3.418,3.418,0,0,1-.1-6.835l.306,0a.878.878,0,0,0,.548-.178l5.783-4.326,1.348,1.328-.859,1.225a1.752,1.752,0,0,0-.119,1.8,7.62,7.62,0,0,1,.474,1.141,1.729,1.729,0,0,0,1.383,1.19l1.437.232.015,1.916-1.481.262a1.742,1.742,0,0,0-1.353,1.2,8.044,8.044,0,0,1-.469,1.141,1.735,1.735,0,0,0,.138,1.817l.854,1.18-1.328,1.348-1.225-.859a1.761,1.761,0,0,0-1.807-.119,7.291,7.291,0,0,1-1.091.459,1.74,1.74,0,0,0-1.18,1.383L13.042,22.2l-1.916.015-.257-1.457a1.746,1.746,0,0,0-1.2-1.363,7.841,7.841,0,0,1-1.156-.464,1.74,1.74,0,0,0-1.807.138l-1.2.869L4.158,18.607l.849-1.215a1.74,1.74,0,0,0,.114-1.807,8.386,8.386,0,0,1-.484-1.146,1.749,1.749,0,0,0-1.378-1.18L1.8,13.027l-.02-1.9,1.467-.257a1.746,1.746,0,0,0,1.363-1.2,7.841,7.841,0,0,1,.464-1.156,1.74,1.74,0,0,0-.138-1.807l-.869-1.2L5.393,4.158,6.6,5a1.746,1.746,0,0,0,1.817.109A7.2,7.2,0,0,1,9.6,4.622a1.738,1.738,0,0,0,1.2-1.388L11.032,1.8l2-.015a.889.889,0,0,0,0-1.778h0L10.943.025A1.68,1.68,0,0,0,9.294,1.442L9.052,2.928a8.984,8.984,0,0,0-1.442.6L6.346,2.647a1.679,1.679,0,0,0-2.158.2L2.741,4.311a1.678,1.678,0,0,0-.163,2.163l.9,1.249a9.775,9.775,0,0,0-.563,1.393L1.4,9.388h0A1.725,1.725,0,0,0,0,11v.044l.015,2.074a1.68,1.68,0,0,0,1.417,1.649l1.516.242a9.508,9.508,0,0,0,.583,1.383l-.884,1.264a1.679,1.679,0,0,0,.2,2.158l1.467,1.447a1.684,1.684,0,0,0,2.163.163l1.249-.9a9.775,9.775,0,0,0,1.393.563L9.383,22.6a1.68,1.68,0,0,0,1.659,1.388h.015l2.074-.015a1.68,1.68,0,0,0,1.649-1.417l.242-1.516a10.3,10.3,0,0,0,1.323-.558l1.279.894a1.679,1.679,0,0,0,2.158-.2l1.447-1.467a1.672,1.672,0,0,0,.163-2.163l-.889-1.23a10.352,10.352,0,0,0,.573-1.383l1.536-.272A1.677,1.677,0,0,0,24,13Z"/></g></g></svg>