<svg width="30" height="30" viewBox="0 0 30 30" fill="none" xmlns="http://www.w3.org/2000/svg">
<rect x="0.5" y="0.5" width="29" height="29" rx="2.5" stroke="#D83657"/>
<path d="M8 10.7501H23.0003" stroke="#D83657" stroke-linecap="round" stroke-linejoin="round"/>
<path d="M8.9375 10.7501L9.87502 22.0004C9.87502 22.4977 10.0726 22.9746 10.4242 23.3262C10.7758 23.6779 11.2528 23.8754 11.7501 23.8754H19.2502C19.7475 23.8754 20.2244 23.6779 20.5761 23.3262C20.9277 22.9746 21.1253 22.4977 21.1253 22.0004L22.0628 10.7501" stroke="#D83657" stroke-linecap="round" stroke-linejoin="round"/>
<path d="M12.688 10.7501V7.93752C12.688 7.68887 12.7868 7.45041 12.9626 7.27459C13.1384 7.09877 13.3769 7 13.6255 7H17.3756C17.6242 7 17.8627 7.09877 18.0385 7.27459C18.2143 7.45041 18.3131 7.68887 18.3131 7.93752V10.7501" stroke="#D83657" stroke-linecap="round" stroke-linejoin="round"/>
<path d="M13.6255 15.4377L17.3756 19.1878M17.3756 15.4377L13.6255 19.1878" stroke="#D83657" stroke-linecap="round" stroke-linejoin="round"/>
</svg>
