<svg xmlns="http://www.w3.org/2000/svg" xmlns:xlink="http://www.w3.org/1999/xlink" width="19" height="19" viewBox="0 0 19 19"><defs><style>.a,.c{fill:#f01c41;}.a{opacity:0;}.b{clip-path:url(#a);}</style><clipPath id="a"><rect class="a" width="19" height="19" transform="translate(175 1694)"/></clipPath></defs><g class="b" transform="translate(-175 -1694)"><g transform="translate(175 1695.031)"><g transform="translate(0 0)"><path class="c" d="M16.756,2.366a5.592,5.592,0,0,0-2.687-1.113A5.69,5.69,0,0,0,9.5,2.658a5.694,5.694,0,0,0-7.828,8.266l6.822,6.822a1.32,1.32,0,0,0,.939.387,1.336,1.336,0,0,0,.939-.387l1.057-1.057a.711.711,0,0,0-1.006-1.006l-.99.99L2.679,9.914A4.277,4.277,0,0,1,3.093,3.49,4.149,4.149,0,0,1,5.1,2.65,4.273,4.273,0,0,1,8.719,3.869L9.5,4.65l.773-.773a4.266,4.266,0,0,1,3.61-1.215,4.194,4.194,0,0,1,2,.829,4.269,4.269,0,0,1,1.689,3.535,4.436,4.436,0,0,1-1.338,2.987l-3.6,3.594a.711.711,0,1,0,1.006,1.006l3.6-3.6A5.814,5.814,0,0,0,19,7.065,5.655,5.655,0,0,0,16.756,2.366Z" transform="translate(0 -1.194)"/></g></g></g></svg>