<svg id="heart" xmlns="http://www.w3.org/2000/svg" xmlns:xlink="http://www.w3.org/1999/xlink" width="22"
     height="22"
     viewBox="0 0 22 22">
    <defs>
        <style>.a,.c{fill:#f01c41;}.a{stroke:#707070;}.b{clip-path:url(#a);}</style>
        <clipPath id="a">
            <rect class="a" width="22" height="22" transform="translate(164 867)"/>
        </clipPath>
    </defs>
    <g class="b" transform="translate(-164 -867)">
        <g transform="translate(164 868.893)">
            <g transform="translate(0 0)">
                <path class="c"
                      d="M15.762.947h0A6.182,6.182,0,0,0,11,3.147,6.1,6.1,0,0,0,6.238.947,6.238,6.238,0,0,0,0,7.185c0,5.9,10.3,11.668,10.722,11.891a.5.5,0,0,0,.557,0C11.7,18.853,22,13.172,22,7.185A6.238,6.238,0,0,0,15.762.947Z"
                      transform="translate(0 -0.947)"/>
            </g>
        </g>
    </g>
</svg>