<svg id="searchCategory" xmlns="http://www.w3.org/2000/svg" xmlns:xlink="http://www.w3.org/1999/xlink"
     width="21" height="21"
     viewBox="0 0 21 21">
    <defs>
        <style>.a{fill:#282830;}.b{clip-path:url(#a);}</style>
        <clipPath id="a">
            <rect class="a" width="21" height="21" transform="translate(108 1694)"/>
        </clipPath>
    </defs>
    <g class="b" transform="translate(-108 -1694)">
        <path class="a"
              d="M12.273,15.351a5.619,5.619,0,1,1,5.619-5.619A5.626,5.626,0,0,1,12.273,15.351Zm0-9.366a3.746,3.746,0,1,0,3.746,3.746A3.75,3.75,0,0,0,12.273,5.985ZM5.062,17.739a.937.937,0,0,1-.653-1.608l1.733-1.686a.937.937,0,0,1,1.306,1.343L5.715,17.474A.934.934,0,0,1,5.062,17.739Zm9.131-8.008a1.922,1.922,0,0,0-1.92-1.92.937.937,0,0,0,0,1.873.047.047,0,0,1,.047.047.937.937,0,1,0,1.873,0Z"
              transform="translate(110.877 1694.988)"/>
        <path class="a"
              d="M9.918,18.466a.9.9,0,0,0-.895-.895H-.105A.9.9,0,0,0-1,18.466a.9.9,0,0,0,.895.895H9.023A.9.9,0,0,0,9.918,18.466Z"
              transform="translate(109 1679.045)"/>
        <path class="a"
              d="M8.009,18.466a.9.9,0,0,0-.895-.895H-.105A.9.9,0,0,0-1,18.466a.9.9,0,0,0,.895.895H7.114A.9.9,0,0,0,8.009,18.466Z"
              transform="translate(109 1682.864)"/>
        <path class="a"
              d="M6.1,18.466a.9.9,0,0,0-.895-.895H-.105A.9.9,0,0,0-1,18.466a.9.9,0,0,0,.895.895H5.2A.9.9,0,0,0,6.1,18.466Z"
              transform="translate(109 1686.682)"/>
    </g>
</svg>