<svg width="21" height="21" viewBox="0 0 21 21" fill="none" xmlns="http://www.w3.org/2000/svg">
<path d="M5.26372 8.39437H8.39437V5.26372L4.74195 1.6113C5.91033 1.05329 7.22298 0.871224 8.49914 1.09018C9.77529 1.30913 10.9522 1.91833 11.8677 2.83389C12.7833 3.74946 13.3925 4.92635 13.6115 6.2025C13.8304 7.47865 13.6483 8.7913 13.0903 9.95969L19.3516 16.221C19.7668 16.6361 20 17.1992 20 17.7863C20 18.3734 19.7668 18.9365 19.3516 19.3516C18.9365 19.7668 18.3734 20 17.7863 20C17.1992 20 16.6361 19.7668 16.221 19.3516L9.95969 13.0903C8.7913 13.6483 7.47865 13.8304 6.2025 13.6115C4.92635 13.3925 3.74946 12.7833 2.83389 11.8677C1.91833 10.9522 1.30913 9.77529 1.09018 8.49914C0.871224 7.22298 1.05329 5.91033 1.6113 4.74195L5.26372 8.39437Z" stroke="#EBBB3E" stroke-linecap="round" stroke-linejoin="round"/>
</svg>
