<svg id="Слой_x0020_1" xmlns="http://www.w3.org/2000/svg" width="6077.15" height="1166.51" viewBox="0 0 6077.15 1166.51">
  <g id="_1919398255776">
    <g id="Group_10686" data-name="Group 10686">
      <path id="Path_5882" data-name="Path 5882" d="M1778.94,775.02c111.02,0,183.28-27.23,229.36-65.98V556.13c-55.51,41.89-119.39,63.89-203.18,63.89-134.06,0-237.74-92.17-237.74-227.27s103.68-227.27,237.74-227.27q47.13,0,87.97,9.43V301.64H2008.3V76.47c-40.85-33.51-114.16-65.98-229.36-65.98-210.51,0-401.12,149.77-401.12,382.27,0,231.46,190.61,382.27,401.12,382.27Zm550.89-13.61V385.42c23.04-23.04,56.55-33.51,92.16-33.51,64.93,0,100.54,32.47,100.54,98.45V761.41h178.04V395.89c0-123.58-82.74-191.66-200.04-191.66-77.5,0-135.1,36.66-170.71,76.45V0H2034.48V114.16h117.3V761.4h178.04Zm1070.36-9.43V643.06c-5.24,3.14-14.66,5.24-24.09,5.24-19.9,0-38.75-8.38-38.75-33.51V419.99c0-133.01-98.45-215.75-268.11-215.75-89.02,0-172.81,23.04-222.03,52.37V396.95c54.46-41.89,124.63-60.74,187.47-60.74,75.41,0,128.82,27.23,128.82,84.83v23.04c-31.42-8.38-72.26-13.61-112.06-13.61-129.87,0-251.36,50.27-251.36,173.86,0,98.45,87.97,170.71,202.13,170.71,91.12,0,139.29-32.47,168.62-72.26,18.85,48.18,73.31,72.26,134.06,72.26,49.22,0,85.88-15.71,95.31-23.04Zm-422.07-157.1c0-47.13,54.46-60.75,99.5-60.75,30.37,0,60.75,4.19,85.88,11.52v60.74c-27.23,29.33-59.7,46.08-103.68,46.08-49.22,0-81.69-23.04-81.69-57.6ZM3490.26,761.4H3668.3V545.65h72.26L3870.43,761.4h197.94L3889.28,472.34l165.48-254.5H3867.29L3742.66,409.5H3668.3V0h-290.11V115.21h112.06v646.2Zm1215.94-9.43V643.05c-5.24,3.14-14.66,5.24-24.09,5.24-19.9,0-38.75-8.38-38.75-33.51V419.98c0-133.01-98.45-215.75-268.11-215.75-89.02,0-172.81,23.04-222.03,52.37V396.94c54.46-41.89,124.63-60.74,187.47-60.74,75.41,0,128.82,27.23,128.82,84.83v23.04c-31.42-8.38-72.26-13.61-112.06-13.61-129.87,0-251.36,50.27-251.36,173.86,0,98.45,87.97,170.71,202.13,170.71,91.12,0,139.29-32.47,168.62-72.26,18.85,48.18,73.31,72.26,134.06,72.26,49.22,0,85.88-15.71,95.31-23.04Zm-422.07-157.1c0-47.13,54.46-60.75,99.5-60.75,30.37,0,60.75,4.19,85.88,11.52v60.74c-27.23,29.33-59.7,46.08-103.68,46.08-49.22,0-81.69-23.04-81.69-57.6Zm722.65,166.52V385.4c23.04-23.04,56.55-33.51,92.16-33.51,64.93,0,100.54,32.47,100.54,98.45V761.39h178.04V395.87c0-123.58-82.74-191.66-200.04-191.66-84.83,0-144.53,42.94-179.09,86.93V217.83H4716.66V333.04h112.06V761.39h178.04Zm1070.36-9.43V643.04c-5.24,3.14-14.66,5.24-24.09,5.24-19.9,0-38.75-8.38-38.75-33.51V419.97c0-133.01-98.45-215.75-268.11-215.75-89.02,0-172.81,23.04-222.03,52.37V396.93c54.46-41.89,124.63-60.74,187.47-60.74,75.41,0,128.82,27.23,128.82,84.83v23.04c-31.42-8.38-72.26-13.61-112.06-13.61-129.87,0-251.36,50.27-251.36,173.86,0,98.45,87.97,170.71,202.13,170.71,91.12,0,139.29-32.47,168.62-72.26,18.85,48.18,73.31,72.26,134.06,72.26,49.22,0,85.88-15.71,95.31-23.04Zm-422.07-157.1c0-47.13,54.46-60.75,99.5-60.75,30.37,0,60.75,4.19,85.88,11.52v60.74c-27.23,29.33-59.7,46.08-103.68,46.08-49.22,0-81.69-23.04-81.69-57.6Z" fill="#282830"/>
      <path id="Path_5883" data-name="Path 5883" d="M1355.29,1111.14h25.02l17.83-49.5h78.51l18.1,49.5h25.28l-70-187.36h-24.75l-70,187.36Zm50.83-71.33,31.4-86.49,31.41,86.49Zm193.48,126.68c38.32,0,61.74-21.82,61.74-64.14V977h-22.09v18.1c-6.92-10.65-20.49-21.03-42.32-21.03-31.14,0-58.55,24.75-58.55,68.67s27.41,68.66,58.55,68.66c21.29,0,34.33-9.85,41.52-19.96v10.91c0,28.21-15.17,43.11-40.19,43.11-22.36,0-36.46-7.45-49.77-18.63v23.42c10.91,9.32,27.41,16.23,51.1,16.23Zm-38.06-123.75c0-29.01,15.44-47.91,39.12-47.91a49.587,49.587,0,0,1,37.79,17.57v60.68a49.587,49.587,0,0,1-37.79,17.57c-23.69,0-39.12-19.16-39.12-47.9Zm139.19,68.4h22.89V1015.6c7.72-10.91,19.43-17.83,37.53-17.83a43.8,43.8,0,0,1,12.78,1.6V977.28c-1.86-.8-6.12-1.6-11.18-1.6-19.43,0-33.53,10.91-39.92,21.82V977.01h-22.09v134.13Zm152.5-137.06c-38.32,0-65.21,29.28-65.21,70s26.88,70,65.21,70,65.47-29.27,65.47-70-27.15-70-65.47-70Zm-42.05,70c0-29.27,17.3-49.24,42.05-49.24,25.02,0,42.05,19.96,42.05,49.24s-17.03,49.24-42.05,49.24C1828.48,1093.32,1811.18,1073.36,1811.18,1044.08Zm139.19,67.07h22.09v-18.36c6.92,10.65,19.96,21.29,41.79,21.29,31.14,0,58.02-25.28,58.02-70s-26.88-70-58.02-70c-21.03,0-34.07,9.85-40.99,20.23V917.66h-22.89v193.48Zm22.89-35.66v-62.81a47.487,47.487,0,0,1,37.26-17.83c23.69,0,38.59,19.96,38.59,49.24,0,29.54-14.9,49.24-38.59,49.24a47.487,47.487,0,0,1-37.26-17.83Zm249.37,35.13v-17.57a14.046,14.046,0,0,1-6.92,1.6c-6.12,0-10.11-3.19-10.11-9.85v-62.54c0-29.28-20.23-48.17-53.49-48.17-21.82,0-39.12,7.99-47.11,14.9v22.62c10.11-9.32,27.95-16.5,45.24-16.5,19.69,0,32.74,9.58,32.74,28.48v12.51c-7.19-2.66-17.3-5.06-31.94-5.06-30.07,0-54.29,15.17-54.29,41.78,0,25.82,21.29,41.25,47.37,41.25,19.96,0,31.67-7.45,39.39-17.83,2.4,11.18,13.04,17.83,25.28,17.83a27.335,27.335,0,0,0,13.84-3.46Zm-102.73-37.79c0-15.17,14.9-23.15,32.2-23.15a96.283,96.283,0,0,1,30.87,4.79v23.95c-7.45,9.32-18.1,15.7-35.4,15.7s-27.68-8.25-27.68-21.29Zm151.7,38.32v-97.41c7.98-11.71,20.49-18.9,36.19-18.9,17.57,0,30.87,10.65,30.87,35.13v81.17h22.89v-84.37c0-36.99-22.89-52.7-48.44-52.7-23.69,0-36.46,12.51-42.32,20.49v-17.3l.27-.27H2248.7v134.13h22.89Zm128.28,0h22.89v-61.21h17.03l44.45,61.21h27.41l-51.9-71.59,51.1-62.54h-26.88l-43.65,53.76h-17.56V917.67h-22.89v193.48Zm183.11-137.06c-31.14,0-58.02,25.28-58.02,70s26.88,70,58.02,70c22.09,0,34.86-10.64,41.78-21.56v18.63h22.09V917.68h-22.89v76.38c-7.19-10.11-19.96-19.96-40.99-19.96Zm-34.86,70c0-29.54,14.9-49.24,38.59-49.24a47.487,47.487,0,0,1,37.26,17.83v62.81a47.487,47.487,0,0,1-37.26,17.83c-23.69,0-38.59-19.96-38.59-49.24Zm255.76,66.54v-17.57a14.046,14.046,0,0,1-6.92,1.6c-6.12,0-10.11-3.19-10.11-9.85v-62.54c0-29.28-20.23-48.17-53.49-48.17-21.82,0-39.12,7.99-47.11,14.9v22.62c10.11-9.32,27.95-16.5,45.24-16.5,19.69,0,32.74,9.58,32.74,28.48v12.51c-7.19-2.66-17.3-5.06-31.94-5.06-30.07,0-54.29,15.17-54.29,41.78,0,25.82,21.29,41.25,47.37,41.25,19.96,0,31.67-7.45,39.39-17.83,2.4,11.18,13.04,17.83,25.28,17.83a27.335,27.335,0,0,0,13.84-3.46Zm-102.73-37.79c0-15.17,14.9-23.15,32.2-23.15a96.283,96.283,0,0,1,30.87,4.79v23.95c-7.45,9.32-18.1,15.7-35.4,15.7s-27.68-8.25-27.68-21.29Zm151.7,38.32v-97.41c7.98-11.71,20.49-18.9,36.19-18.9,17.57,0,30.87,10.65,30.87,35.13v81.17h22.89v-84.37c0-36.99-22.89-52.7-48.44-52.7-23.69,0-36.46,12.51-42.32,20.49v-17.3l.27-.27h-22.36v134.13h22.89Zm189.49,0h23.42V958.66l62.81,106.19,62.81-106.72v153.03h23.42V923.8H3186.6l-57.75,99.54-58.28-99.54h-28.21v187.36Zm332.94-.53v-17.57a14.046,14.046,0,0,1-6.92,1.6c-6.12,0-10.11-3.19-10.11-9.85v-62.54c0-29.28-20.23-48.17-53.49-48.17-21.82,0-39.12,7.99-47.11,14.9v22.62c10.11-9.32,27.95-16.5,45.24-16.5,19.69,0,32.74,9.58,32.74,28.48v12.51c-7.19-2.66-17.3-5.06-31.94-5.06-30.07,0-54.29,15.17-54.29,41.78,0,25.82,21.29,41.25,47.37,41.25,19.96,0,31.67-7.45,39.39-17.83,2.4,11.18,13.04,17.83,25.28,17.83a27.335,27.335,0,0,0,13.84-3.46Zm-102.73-37.79c0-15.17,14.9-23.15,32.2-23.15a96.283,96.283,0,0,1,30.87,4.79v23.95c-7.45,9.32-18.1,15.7-35.4,15.7s-27.68-8.25-27.68-21.29Zm128.81,38.32h22.89v-95.54c7.72-10.91,19.43-17.83,37.53-17.83a43.8,43.8,0,0,1,12.78,1.6V977.3c-1.86-.8-6.12-1.6-11.18-1.6-19.43,0-33.53,10.91-39.92,21.82V977.03h-22.09v134.13Zm100.33,0h22.89v-61.21h17.03l44.45,61.21h27.41l-51.9-71.59,51.1-62.54H3585.8l-43.65,53.76h-17.56V917.68H3501.7v193.48Zm124.02-67.87c0,42.85,29.28,70.79,71.33,70.79,21.82,0,38.32-7.19,46.58-14.11v-23.16c-10.11,8.78-25.28,16.24-45.24,16.24-30.61,0-48.7-21.03-48.7-42.32h95.54v-14.11c0-35.66-22.89-62.54-58.02-62.54-36.2,0-61.48,27.95-61.48,69.2Zm23.95-11.71c2.13-21.29,15.7-36.99,37.26-36.99,21.29,0,34.6,15.97,35.66,36.99Zm159.95,38.59V997.51h36.19V977.02h-36.19V941.36h-22.89v35.66h-22.36v20.49h22.36v76.38c0,24.48,15.7,40.19,39.92,40.19,7.98,0,15.97-1.86,19.16-3.99v-19.96c-2.39,1.6-8.25,3.46-14.9,3.46-11.98,0-21.29-6.65-21.29-23.42Zm65.74,91.82h22.89v-67.87c7.19,10.11,19.96,19.96,40.99,19.96,31.14,0,58.02-25.28,58.02-70s-26.88-70-58.02-70c-22.09,0-34.86,10.65-41.79,21.56V977.01h-22.09v184.97Zm22.89-86.5v-62.81a47.488,47.488,0,0,1,37.26-17.83c23.69,0,38.59,19.96,38.59,49.24,0,29.54-14.9,49.24-38.59,49.24a47.488,47.488,0,0,1-37.26-17.83Zm154.63-157.82h-22.89v193.48h22.89V917.67Zm31.67,125.62c0,42.85,29.28,70.79,71.33,70.79,21.82,0,38.32-7.19,46.58-14.11v-23.16c-10.11,8.78-25.28,16.24-45.24,16.24-30.61,0-48.7-21.03-48.7-42.32h95.54v-14.11c0-35.66-22.89-62.54-58.02-62.54-36.2,0-61.48,27.95-61.48,69.2Zm23.95-11.71c2.13-21.29,15.7-36.99,37.26-36.99,21.29,0,34.6,15.97,35.66,36.99Zm213.45-54.56-39.39,105.39-39.12-105.39h-24.75l51.37,133.07c-10.38,22.36-20.76,35.4-37.79,35.4-5.85,0-9.85-1.33-12.78-3.19v21.02a37.8,37.8,0,0,0,15.7,3.19c28.74,0,46.31-24.75,60.68-61.74l49.77-127.75h-23.69Zm43.38,98.21v23.15c8.25,7.99,26.61,15.7,49.5,15.7,30.87,0,54.03-14.64,54.03-41.25,0-23.42-18.63-33.8-42.32-38.86l-14.64-3.19c-18.36-3.99-25.28-9.05-25.28-18.36,0-10.65,11.18-17.83,30.34-17.83,18.1,0,36.2,8.25,44.98,16.5V988.2c-8.25-7.72-26.08-14.11-45.24-14.11-30.34,0-52.96,17.03-52.96,39.92,0,22.09,19.16,33.27,40.72,37.79l14.9,3.19c17.3,3.73,26.61,7.72,26.61,19.16,0,12.78-12.77,19.43-31.94,19.43-18.1,0-38.59-8.52-48.7-18.36Z" fill="#282830"/>
    </g>
    <g id="Group_10687" data-name="Group 10687">
      <path id="Path_5884" data-name="Path 5884" d="M1114.2,352.95h0C1114.2,158.02,956.18,0,761.25,0V352.95h0c0,194.93,158.02,352.95,352.95,352.95Z" fill="#e31e24" fill-rule="evenodd"/>
      <path id="Path_5885" data-name="Path 5885" d="M352.95,352.95h0C547.88,352.95,705.9,194.93,705.9,0H352.95C158.02,0,0,158.02,0,352.95Z" fill="#e31e24" fill-rule="evenodd"/>
      <path id="Path_5886" data-name="Path 5886" d="M352.95,761.25h0C352.95,566.32,194.93,408.3,0,408.3V761.25H0C0,956.18,158.02,1114.2,352.95,1114.2V761.25Z" fill="#e31e24" fill-rule="evenodd"/>
      <path id="Path_5887" data-name="Path 5887" d="M761.24,1114.2h0c194.93,0,352.95-158.02,352.95-352.95H761.24c-194.93,0-352.95,158.02-352.95,352.95H761.24Z" fill="#e31e24" fill-rule="evenodd"/>
      <path id="Path_5888" data-name="Path 5888" d="M0,761.25H352.95V1114.2H0Z" fill="#e31e24" fill-rule="evenodd"/>
    </g>
  </g>
</svg>
