<svg xmlns="http://www.w3.org/2000/svg" width="177.396" height="967.566" viewBox="0 0 177.396 967.566">
  <g id="Слой_x0020_1" transform="translate(0 967.566) rotate(-90)" opacity="0.5">
    <g id="_1919398255776">
      <g id="Group_10686" data-name="Group 10686" transform="translate(215.779 0)">
        <path id="Path_5882" data-name="Path 5882" d="M1441.684,123.394c17.676,0,29.181-4.335,36.517-10.5V88.544c-8.838,6.669-19.008,10.172-32.349,10.172-21.344,0-37.852-14.675-37.852-36.185s16.507-36.185,37.852-36.185a62.141,62.141,0,0,1,14.006,1.5V48.025H1478.2V12.175c-6.5-5.335-18.176-10.5-36.517-10.5-33.516,0-63.864,23.845-63.864,60.863,0,36.852,30.348,60.863,63.864,60.863Zm87.709-2.167V61.364c3.668-3.668,9-5.335,14.673-5.335,10.338,0,16.007,5.17,16.007,15.675v49.523h28.347v-58.2c0-19.676-13.173-30.515-31.849-30.515a36.1,36.1,0,0,0-27.179,12.172V0h-47.022V18.176h18.676v103.05h28.346Zm170.416-1.5V102.384a8.18,8.18,0,0,1-3.835.834c-3.168,0-6.17-1.334-6.17-5.335V66.868c0-21.177-15.675-34.35-42.687-34.35-14.173,0-27.514,3.668-35.35,8.338V63.2c8.671-6.669,19.843-9.671,29.848-9.671,12.006,0,20.51,4.335,20.51,13.506V70.7a72.6,72.6,0,0,0-17.842-2.167c-20.677,0-40.02,8-40.02,27.681,0,15.675,14.006,27.179,32.182,27.179,14.508,0,22.177-5.17,26.847-11.5,3,7.671,11.672,11.5,21.344,11.5,7.837,0,13.673-2.5,15.175-3.668Zm-67.2-25.013c0-7.5,8.671-9.672,15.842-9.672a50.221,50.221,0,0,1,13.673,1.834v9.671a21.324,21.324,0,0,1-16.507,7.337c-7.837,0-13.006-3.668-13.006-9.171Zm81.54,26.512H1742.5V86.875H1754l20.677,34.35h31.515L1777.679,75.2l26.347-40.52h-29.848L1754.335,65.2H1742.5V0h-46.19V18.343h17.842V121.227Zm193.595-1.5V102.383a8.18,8.18,0,0,1-3.835.834c-3.168,0-6.17-1.334-6.17-5.335V66.867c0-21.177-15.675-34.35-42.687-34.35-14.173,0-27.514,3.668-35.35,8.338V63.2c8.671-6.669,19.843-9.671,29.848-9.671,12.006,0,20.51,4.335,20.51,13.506V70.7a72.6,72.6,0,0,0-17.842-2.167c-20.677,0-40.02,8-40.02,27.681,0,15.675,14.006,27.179,32.182,27.179,14.508,0,22.177-5.17,26.847-11.5,3,7.671,11.672,11.5,21.344,11.5,7.836,0,13.673-2.5,15.175-3.668Zm-67.2-25.013c0-7.5,8.671-9.672,15.842-9.672a50.219,50.219,0,0,1,13.673,1.834v9.671a21.324,21.324,0,0,1-16.507,7.337c-7.837,0-13.006-3.668-13.006-9.171ZM1955.6,121.224V61.361c3.668-3.668,9-5.335,14.673-5.335,10.338,0,16.007,5.17,16.007,15.675v49.523h28.346v-58.2c0-19.676-13.173-30.515-31.849-30.515a35.726,35.726,0,0,0-28.514,13.84V34.682H1909.41V53.025h17.842v68.2H1955.6Zm170.416-1.5V102.381a8.181,8.181,0,0,1-3.835.834c-3.168,0-6.169-1.334-6.169-5.335V66.865c0-21.177-15.675-34.35-42.687-34.35-14.173,0-27.514,3.668-35.35,8.338V63.2c8.671-6.669,19.843-9.671,29.848-9.671,12.006,0,20.51,4.335,20.51,13.506V70.7a72.6,72.6,0,0,0-17.842-2.167c-20.677,0-40.02,8-40.02,27.681,0,15.675,14.006,27.179,32.182,27.179,14.508,0,22.177-5.17,26.847-11.5,3,7.671,11.672,11.5,21.344,11.5,7.837,0,13.673-2.5,15.175-3.668Zm-67.2-25.013c0-7.5,8.671-9.672,15.842-9.672a50.222,50.222,0,0,1,13.673,1.834v9.671a21.324,21.324,0,0,1-16.507,7.337c-7.837,0-13.006-3.668-13.006-9.171Z" transform="translate(-1374.231 27)" fill="#eceef4"/>
      </g>
      <g id="Group_10687" data-name="Group 10687">
        <path id="Path_5884" data-name="Path 5884" d="M817.445,56.195h0A56.194,56.194,0,0,0,761.25,0V56.195h0a56.194,56.194,0,0,0,56.195,56.195Z" transform="translate(-640.048)" fill="#eceef4" fill-rule="evenodd"/>
        <path id="Path_5885" data-name="Path 5885" d="M56.195,56.195h0A56.194,56.194,0,0,0,112.389,0H56.195A56.194,56.194,0,0,0,0,56.195Z" fill="#eceef4" fill-rule="evenodd"/>
        <path id="Path_5886" data-name="Path 5886" d="M56.195,464.495h0A56.194,56.194,0,0,0,0,408.3v56.195H0a56.194,56.194,0,0,0,56.195,56.195Z" transform="translate(0 -343.293)" fill="#eceef4" fill-rule="evenodd"/>
        <path id="Path_5887" data-name="Path 5887" d="M464.484,817.445h0a56.194,56.194,0,0,0,56.195-56.195H464.484a56.194,56.194,0,0,0-56.195,56.195Z" transform="translate(-343.284 -640.048)" fill="#eceef4" fill-rule="evenodd"/>
        <path id="Path_5888" data-name="Path 5888" d="M0,761.25H56.195v56.195H0Z" transform="translate(0 -640.048)" fill="#eceef4" fill-rule="evenodd"/>
      </g>
    </g>
  </g>
</svg>
