<?xml version="1.0" encoding="UTF-8"?>
<!DOCTYPE svg PUBLIC "-//W3C//DTD SVG 1.1//EN" "http://www.w3.org/Graphics/SVG/1.1/DTD/svg11.dtd">
<!-- Creator: CorelDRAW 2021 (64-Bit) -->
<svg xmlns="http://www.w3.org/2000/svg" xml:space="preserve" width="297mm" height="210mm" version="1.1" style="shape-rendering:geometricPrecision; text-rendering:geometricPrecision; image-rendering:optimizeQuality; fill-rule:evenodd; clip-rule:evenodd"
viewBox="0 0 29700 21000"
 xmlns:xlink="http://www.w3.org/1999/xlink"
 xmlns:xodm="http://www.corel.com/coreldraw/odm/2003">
 <defs>
  <style type="text/css">
   <![CDATA[
    .fil1 {fill:#00C65E}
    .fil0 {fill:#1D2C49}
   ]]>
  </style>
 </defs>
 <g id="Слой_x0020_1">
  <metadata id="CorelCorpID_0Corel-Layer"/>
  <path class="fil0" d="M10363.51 4661.2c-46.16,0 -87.5,2.38 -135.51,2.38l-411.3 2.37c-1.75,21.08 -22.51,54.94 -32.46,74.53 -39.37,77.58 -102.05,177.1 -149.62,249.79l-29.03 44.67c-19.73,29.41 -38.19,58.46 -57.54,87.49 -19.43,29.13 -38.15,57.21 -58.01,87.01 -10.13,15.19 -18.41,27.59 -28.53,42.79 -10.37,15.58 -19.94,28.73 -29.96,43.75l-280.04 407.04c-5.61,8.39 -9.89,13.51 -15.72,22.32l-147.44 213.92c-10.94,15.02 -20.01,28.87 -29.9,43.81 -4.97,7.51 -9.56,13.1 -14.77,20.89 -5.52,8.24 -9.55,14.38 -15.19,22.85 -5.99,8.98 -21.41,39.05 -31.86,41.84 -2.25,-8.42 -9.26,-14.1 -14.82,-20.85 -52.02,-63.14 -101,-147.37 -147.32,-216.43l-114.11 -178.31c-5.25,-8.35 -9.51,-14.93 -14.56,-23.48 -9.49,-16.06 -18.99,-29.03 -28.53,-45.17 -9.32,-15.77 -18.39,-30.21 -28.23,-45.47l-85.13 -135.98c-4.8,-7.25 -8.63,-13.98 -13.49,-22.16 -5.2,-8.75 -9.83,-15.23 -15.04,-23.01l-397.03 2.38c-44.82,0 -84.25,2.38 -130.76,2.38 35.11,66.35 77.57,130.31 118.9,192.54l29.5 46.58c48.88,80.16 104.23,156.31 154,235.9 10.62,16.99 19.93,31.06 30.92,47.54 5.47,8.22 9.58,14.37 15.23,22.81l295.27 446.49c43.14,64.31 114.55,176.94 156.01,233.9 33.66,46.24 61.86,93.74 95.46,139.9 23.25,31.92 78.92,123.78 98.48,136.88 10.1,-7.39 24.11,-34.96 31.86,-46.59 69.47,-104.2 154.77,-232.8 220.62,-338.09l281.98 -436c10.62,-16.98 21.83,-31.23 32.13,-48.7l350.74 -526.54c6.17,-8.3 10.69,-15.09 16.54,-23.89 5.91,-8.9 10.83,-15.16 16.67,-23.74l32.77 -48.06c7.75,-11.72 24.01,-39.1 34.24,-46.59 0,517.87 -2.38,1032.66 -2.38,1552.47l446.96 0 0 -2218.16z"/>
  <path class="fil1" d="M7213.39 6879.36l805.99 0.03c41.38,0.24 123.92,-5.8 168.85,-7.09l111.3 -7.56c71.68,-7.71 135.53,-12.16 211.52,-21.48 32.84,-4.02 69.93,-8.19 102.67,-13.82 33.69,-5.8 70.14,-9.18 102.22,-16.65 -3.38,-40.66 -84.08,-165.36 -108.89,-202.56 -10.56,-15.84 -19.69,-29.57 -30.43,-45.65 -11.1,-16.63 -19.44,-31.27 -30.44,-48.01 -10.49,-15.94 -19.63,-32.58 -28.36,-50.09l-25.36 -53.1 -203.45 22.4c-34.56,4.76 -70.2,7.01 -103.6,10.52l-106.6 7.52c-32.63,-0.32 -71.35,4.73 -109.39,4.73 -19.04,0 -38.1,-0.12 -57.14,-0.08 -11.83,0.02 -17.39,2.61 -25.71,2.12 -7.69,-0.45 -14.52,-2.14 -26.48,-2.07l-111.64 -2.47c-15.29,-1.26 -36.31,-4.23 -52.43,-4.63 -18.5,-0.46 -33.47,-4.76 -52.31,-4.76 0,-184.14 2.38,-360.7 2.38,-544.43 0,-47.34 2.38,-87.33 2.38,-133.14l2.38 -411.3 -437.46 0 0 1521.57z"/>
  <path class="fil1" d="M6809.23 4663.58c15.45,23.07 27.75,35.43 43.8,56.05l146.96 159.73c54.04,58.43 114.74,112.99 171.16,168.82l38.23 30.71c52.48,28.72 160.33,34.03 241.76,34.03 204.6,0 394.95,-19.02 599.12,-19.02l126 0c22.28,0 139.86,4.08 167.8,8.13 79.12,11.46 143.37,13.59 225.4,40.87 92.07,30.62 153.38,70.61 219.59,137.03 41.66,41.79 86.16,99.36 116.34,149.94 34.94,58.58 62.2,116.52 84.88,181.39 4.78,13.66 20.21,57.84 20.47,69.87 10.16,-2.72 17.74,-13.33 24.36,-20.83 51.49,-58.29 105.5,-152.84 148.23,-217.89 6.61,-10.04 10.88,-18.09 17.15,-28.02 28.59,-45.31 59.94,-101.29 87.46,-143.15 12.22,-18.58 17.61,-23.14 17.61,-37.08 0,-51.36 -69.79,-140.01 -105.31,-182.36l-69.98 -72.66c-6.48,-6.24 -10.25,-7.72 -16.73,-14.18 -43.92,-43.7 -145.74,-115.89 -201.08,-146.03 -13.05,-7.12 -23.59,-13.4 -36.46,-20.6l-118.95 -54.6c-27.41,-10.99 -57.25,-22.27 -86.27,-30.23 -169.17,-46.35 -215.43,-49.92 -411.3,-49.92 -39.16,0 -73.13,-2.38 -114.12,-2.38l-972.37 0c-123.82,0 -239.98,2.38 -363.75,2.38z"/>
 </g>
</svg>
