<svg id="inputSearch" xmlns="http://www.w3.org/2000/svg" xmlns:xlink="http://www.w3.org/1999/xlink" width="17"
     height="17" viewBox="0 0 17 17">
    <defs>
        <style>.a{fill:#282830;}.b{opacity:0.4;clip-path:url(#a);}</style>
        <clipPath id="a">
            <rect class="a" width="17" height="17"/>
        </clipPath>
    </defs>
    <g class="b">
        <g transform="translate(0.007)">
            <path class="a"
                  d="M7.006,14a7,7,0,1,1,7-7,7.008,7.008,0,0,1-7,7Zm0-12.674A5.673,5.673,0,1,0,12.68,7,5.68,5.68,0,0,0,7.006,1.327ZM16.8,16.806a.664.664,0,0,0,0-.938L13.829,12.9a.664.664,0,0,0-.938.938l2.969,2.969a.664.664,0,0,0,.938,0Z"
                  transform="translate(-0.006)"/>
            <path class="a"
                  d="M15.305,15.311a.664.664,0,0,0,0-.938L12.336,11.4a.664.664,0,1,0-.938.938l2.969,2.969a.664.664,0,0,0,.938,0Z"
                  transform="translate(1.487 1.495)"/>
        </g>
    </g>
</svg>